<mxfile host="app.diagrams.net" modified="2023-05-06T14:26:02.109Z" agent="Mozilla/5.0 (Windows NT 10.0; Win64; x64) AppleWebKit/537.36 (KHTML, like Gecko) Chrome/112.0.0.0 Safari/537.36" version="21.2.3" etag="H0ZPey2zbw-7IQ4lhGYs" type="github">
  <diagram name="페이지-1" id="NStHSPhdiZQwSJD0w6Mi">
    <mxGraphModel>
      <root>
        <mxCell id="0" />
        <mxCell id="1" parent="0" />
      </root>
    </mxGraphModel>
  </diagram>
</mxfile>
